
<svg width="320" height="120" viewBox="0 0 320 120" fill="none" xmlns="http://www.w3.org/2000/svg">
<rect height="120" fill="#1E1E1E"/>
<rect width="320" height="120" rx="15" fill="#D9D9D9"/>
<path d="M18.7955 14.9091C18.6989 13.9375 18.2699 13.1648 17.5085 12.5909C16.7472 12.017 15.7898 11.7301 14.6364 11.7301C13.8239 11.7301 13.108 11.8693 12.4886 12.1477C11.875 12.4261 11.392 12.8125 11.0398 13.3068C10.6932 13.7955 10.5199 14.3523 10.5199 14.9773C10.5199 15.4375 10.6193 15.8409 10.8182 16.1875C11.017 16.5341 11.2841 16.8324 11.6193 17.0824C11.9602 17.3267 12.3352 17.5369 12.7443 17.7131C13.1591 17.8892 13.5767 18.0369 13.9972 18.1562L15.8381 18.6847C16.3949 18.8381 16.9517 19.0341 17.5085 19.2727C18.0653 19.5114 18.5739 19.8125 19.0341 20.1761C19.5 20.5341 19.8722 20.9744 20.1506 21.4972C20.4347 22.0142 20.5767 22.6364 20.5767 23.3636C20.5767 24.2955 20.3352 25.1335 19.8523 25.8778C19.3693 26.6222 18.6761 27.2131 17.7727 27.6506C16.8693 28.0824 15.7869 28.2983 14.5256 28.2983C13.3381 28.2983 12.3068 28.1023 11.4318 27.7102C10.5568 27.3125 9.86932 26.7642 9.36932 26.0653C8.86932 25.3665 8.58807 24.5568 8.52557 23.6364H10.1619C10.2188 24.3239 10.446 24.9062 10.8438 25.3835C11.2415 25.8608 11.7585 26.2244 12.3949 26.4744C13.0312 26.7187 13.7415 26.8409 14.5256 26.8409C15.3949 26.8409 16.1676 26.696 16.8438 26.4062C17.5256 26.1108 18.0597 25.7017 18.446 25.179C18.8381 24.6506 19.0341 24.0369 19.0341 23.3381C19.0341 22.7472 18.8807 22.2528 18.5739 21.8551C18.267 21.4517 17.8381 21.1136 17.2869 20.8409C16.7415 20.5682 16.108 20.3267 15.3864 20.1165L13.2983 19.5028C11.929 19.0937 10.8665 18.5284 10.1108 17.8068C9.35511 17.0852 8.97727 16.1648 8.97727 15.0455C8.97727 14.108 9.22727 13.2841 9.72727 12.5739C10.233 11.858 10.9148 11.3011 11.7727 10.9034C12.6364 10.5 13.6051 10.2983 14.679 10.2983C15.7642 10.2983 16.7244 10.4972 17.5597 10.8949C18.3949 11.2926 19.0568 11.8409 19.5455 12.5398C20.0398 13.233 20.304 14.0227 20.3381 14.9091H18.7955ZM29.1847 28.2727C28.054 28.2727 27.054 27.9858 26.1847 27.4119C25.321 26.8381 24.6449 26.0455 24.1562 25.0341C23.6676 24.017 23.4233 22.8437 23.4233 21.5142C23.4233 20.1733 23.6676 18.9943 24.1562 17.9773C24.6449 16.9545 25.321 16.1591 26.1847 15.5909C27.054 15.017 28.054 14.7301 29.1847 14.7301C30.3153 14.7301 31.3125 15.017 32.1761 15.5909C33.0398 16.1648 33.7159 16.9602 34.2045 17.9773C34.6989 18.9943 34.946 20.1733 34.946 21.5142C34.946 22.8437 34.7017 24.017 34.2131 25.0341C33.7244 26.0455 33.0455 26.8381 32.1761 27.4119C31.3125 27.9858 30.3153 28.2727 29.1847 28.2727ZM29.1847 26.8835C30.0938 26.8835 30.8636 26.6392 31.4943 26.1506C32.125 25.6619 32.6023 25.0114 32.9261 24.1989C33.2557 23.3864 33.4205 22.4915 33.4205 21.5142C33.4205 20.5369 33.2557 19.6392 32.9261 18.821C32.6023 18.0028 32.125 17.3466 31.4943 16.8523C30.8636 16.358 30.0938 16.1108 29.1847 16.1108C28.2813 16.1108 27.5114 16.358 26.875 16.8523C26.2443 17.3466 25.7642 18.0028 25.4347 18.821C25.1108 19.6392 24.9489 20.5369 24.9489 21.5142C24.9489 22.4915 25.1108 23.3864 25.4347 24.1989C25.7642 25.0114 26.2443 25.6619 26.875 26.1506C27.5057 26.6392 28.2756 26.8835 29.1847 26.8835ZM39.7933 10.5455V28H38.2763V10.5455H39.7933ZM53.9411 14.9091L49.1598 28H47.5405L42.7592 14.9091H44.4041L48.2905 25.9972H48.4098L52.2962 14.9091H53.9411ZM61.733 28.2727C60.5114 28.2727 59.4545 27.9886 58.5625 27.4205C57.6705 26.8466 56.9801 26.054 56.4915 25.0426C56.0085 24.0256 55.767 22.8551 55.767 21.5312C55.767 20.2131 56.0085 19.0426 56.4915 18.0199C56.9801 16.9915 57.6534 16.1875 58.5114 15.608C59.375 15.0227 60.3722 14.7301 61.5028 14.7301C62.2131 14.7301 62.8977 14.8608 63.5568 15.1222C64.2159 15.3778 64.8068 15.7727 65.3295 16.3068C65.858 16.8352 66.2756 17.5028 66.5824 18.3097C66.8892 19.1108 67.0426 20.0597 67.0426 21.1562V21.9062H56.8153V20.5682H65.4915C65.4915 19.7273 65.321 18.9716 64.9801 18.3011C64.6449 17.625 64.1761 17.0909 63.5739 16.6989C62.9773 16.3068 62.2869 16.1108 61.5028 16.1108C60.6733 16.1108 59.9432 16.3324 59.3125 16.7756C58.6818 17.2187 58.1875 17.804 57.8295 18.5312C57.4773 19.2585 57.2983 20.054 57.2926 20.9176V21.7188C57.2926 22.7585 57.4716 23.6676 57.8295 24.446C58.1932 25.2187 58.7074 25.8182 59.3722 26.2443C60.0369 26.6705 60.8239 26.8835 61.733 26.8835C62.3523 26.8835 62.8949 26.7869 63.3608 26.5938C63.8324 26.4006 64.2273 26.142 64.5455 25.8182C64.8693 25.4886 65.1136 25.1278 65.2784 24.7358L66.7188 25.2045C66.5199 25.7557 66.1932 26.2642 65.7386 26.7301C65.2898 27.196 64.7273 27.571 64.0511 27.8551C63.3807 28.1335 62.608 28.2727 61.733 28.2727ZM71.5959 27.6676C71.2607 27.6676 70.9709 27.5483 70.7266 27.3097C70.4879 27.071 70.3686 26.7812 70.3686 26.4403C70.3686 26.1051 70.4879 25.8182 70.7266 25.5795C70.9709 25.3352 71.2607 25.2131 71.5959 25.2131C71.9368 25.2131 72.2266 25.3352 72.4652 25.5795C72.7038 25.8182 72.8232 26.1051 72.8232 26.4403C72.8232 26.6676 72.7663 26.875 72.6527 27.0625C72.5447 27.2443 72.397 27.392 72.2095 27.5057C72.0277 27.6136 71.8232 27.6676 71.5959 27.6676ZM71.5959 18.2244C71.2607 18.2244 70.9709 18.1051 70.7266 17.8665C70.4879 17.6278 70.3686 17.3381 70.3686 16.9972C70.3686 16.6619 70.4879 16.375 70.7266 16.1364C70.9709 15.892 71.2607 15.7699 71.5959 15.7699C71.9368 15.7699 72.2266 15.892 72.4652 16.1364C72.7038 16.375 72.8232 16.6619 72.8232 16.9972C72.8232 17.2244 72.7663 17.4318 72.6527 17.6193C72.5447 17.8011 72.397 17.9489 72.2095 18.0625C72.0277 18.1705 71.8232 18.2244 71.5959 18.2244Z" fill="black" id="solve"/>
<text id="equasion" fill="black" x="10" y="70" style="font-family:'Times New Roman',serif;font-size:32px">

</text>


<text xmlns="http://www.w3.org/2000/svg" fill="black" x="10" style="font-family:'Inter','Arial',sans-serif;font-size:16px;fill:#666666" y="110" id="variables">

</text></svg>