<svg width="996" height="400" viewBox="0 0 996 400" fill="none" xmlns="http://www.w3.org/2000/svg">
<g clip-path="url(#clip0_0_1)">
<path d="M400 0H0V400H400V0Z" fill="black"/>
<path d="M400 0H0V400H400V0Z" fill="#EE46D3" fill-opacity="0.431835"/>
<mask id="mask0_0_1" style="mask-type:luminance" maskUnits="userSpaceOnUse" x="0" y="0" width="400" height="400">
<path d="M400 0H0V400H400V0Z" fill="white"/>
</mask>
<g mask="url(#mask0_0_1)">
<g filter="url(#filter0_f_0_1)">
<path d="M373.25 4.5H71.25V272H373.25V4.5Z" fill="#18A0FB"/>
</g>
</g>
<g style="mix-blend-mode:overlay">
<path d="M400 0H0V400H400V0Z" fill="#808080"/>
</g>
</g>
<g style="mix-blend-mode:multiply" filter="url(#filter1_i_0_1)">
<rect width="400" height="400" rx="67" fill="#075985"/>
</g>
<g filter="url(#filter2_d_0_1)">
<mask id="path-8-outside-1_0_1" maskUnits="userSpaceOnUse" x="55" y="172" width="282" height="60" fill="black">
<rect fill="white" x="55" y="172" width="282" height="60"/>
<path d="M56.6 174.16H72.2C79.0267 174.16 84.12 176.507 87.48 181.2C90.84 185.893 92.52 192.853 92.52 202.08C92.52 211.307 90.84 218.267 87.48 222.96C84.12 227.653 79.0267 230 72.2 230H56.6V174.16ZM71.88 224.16C76.36 224.16 79.72 222.613 81.96 219.52C84.2533 216.427 85.4 212.053 85.4 206.4V197.76C85.4 192.107 84.2533 187.733 81.96 184.64C79.72 181.547 76.36 180 71.88 180H63.32V224.16H71.88ZM104.169 230V174.16H138.569V180H110.889V198.8H137.609V204.64H110.889V224.16H138.569V230H104.169ZM151.978 174.16H170.938C175.738 174.16 179.498 175.467 182.218 178.08C184.938 180.693 186.298 184.187 186.298 188.56C186.298 191.92 185.471 194.56 183.818 196.48C182.218 198.4 180.138 199.76 177.578 200.56V200.8C180.724 201.547 183.311 202.96 185.337 205.04C187.364 207.067 188.378 210.027 188.378 213.92C188.378 216.16 188.004 218.267 187.258 220.24C186.511 222.213 185.444 223.92 184.058 225.36C182.724 226.8 181.124 227.947 179.258 228.8C177.444 229.6 175.471 230 173.338 230H151.978V174.16ZM171.338 224.16C174.431 224.16 176.858 223.467 178.618 222.08C180.378 220.693 181.258 218.56 181.258 215.68V212.4C181.258 209.573 180.378 207.467 178.618 206.08C176.858 204.64 174.431 203.92 171.338 203.92H158.698V224.16H171.338ZM170.218 198.4C173.044 198.4 175.258 197.787 176.858 196.56C178.458 195.28 179.258 193.36 179.258 190.8V187.68C179.258 185.12 178.458 183.2 176.858 181.92C175.258 180.64 173.044 180 170.218 180H158.698V198.4H170.218ZM202.506 230V174.16H209.226V224.16H235.706V230H202.506ZM264.875 230.96C261.462 230.96 258.528 230.32 256.075 229.04C253.622 227.707 251.595 225.813 249.995 223.36C248.395 220.907 247.222 217.893 246.475 214.32C245.728 210.747 245.355 206.667 245.355 202.08C245.355 197.547 245.728 193.493 246.475 189.92C247.222 186.293 248.395 183.253 249.995 180.8C251.595 178.347 253.622 176.48 256.075 175.2C258.528 173.867 261.462 173.2 264.875 173.2C268.288 173.2 271.222 173.867 273.675 175.2C276.128 176.48 278.155 178.347 279.755 180.8C281.355 183.253 282.528 186.293 283.275 189.92C284.022 193.493 284.395 197.547 284.395 202.08C284.395 206.667 284.022 210.747 283.275 214.32C282.528 217.893 281.355 220.907 279.755 223.36C278.155 225.813 276.128 227.707 273.675 229.04C271.222 230.32 268.288 230.96 264.875 230.96ZM264.875 225.12C267.115 225.12 269.008 224.693 270.555 223.84C272.102 222.933 273.382 221.68 274.395 220.08C275.408 218.48 276.128 216.56 276.555 214.32C277.035 212.027 277.275 209.467 277.275 206.64V197.52C277.275 194.747 277.035 192.213 276.555 189.92C276.128 187.627 275.408 185.68 274.395 184.08C273.382 182.48 272.102 181.253 270.555 180.4C269.008 179.493 267.115 179.04 264.875 179.04C262.635 179.04 260.742 179.493 259.195 180.4C257.648 181.253 256.368 182.48 255.355 184.08C254.342 185.68 253.595 187.627 253.115 189.92C252.688 192.213 252.475 194.747 252.475 197.52V206.64C252.475 209.467 252.688 212.027 253.115 214.32C253.595 216.56 254.342 218.48 255.355 220.08C256.368 221.68 257.648 222.933 259.195 223.84C260.742 224.693 262.635 225.12 264.875 225.12ZM310.364 202.64L302.364 212.08V230H295.644V174.16H302.364V203.28H302.604L309.964 194L326.444 174.16H334.524L314.924 197.68L335.084 230H327.244L310.364 202.64Z"/>
</mask>
<path d="M56.6 174.16H72.2C79.0267 174.16 84.12 176.507 87.48 181.2C90.84 185.893 92.52 192.853 92.52 202.08C92.52 211.307 90.84 218.267 87.48 222.96C84.12 227.653 79.0267 230 72.2 230H56.6V174.16ZM71.88 224.16C76.36 224.16 79.72 222.613 81.96 219.52C84.2533 216.427 85.4 212.053 85.4 206.4V197.76C85.4 192.107 84.2533 187.733 81.96 184.64C79.72 181.547 76.36 180 71.88 180H63.32V224.16H71.88ZM104.169 230V174.16H138.569V180H110.889V198.8H137.609V204.64H110.889V224.16H138.569V230H104.169ZM151.978 174.16H170.938C175.738 174.16 179.498 175.467 182.218 178.08C184.938 180.693 186.298 184.187 186.298 188.56C186.298 191.92 185.471 194.56 183.818 196.48C182.218 198.4 180.138 199.76 177.578 200.56V200.8C180.724 201.547 183.311 202.96 185.337 205.04C187.364 207.067 188.378 210.027 188.378 213.92C188.378 216.16 188.004 218.267 187.258 220.24C186.511 222.213 185.444 223.92 184.058 225.36C182.724 226.8 181.124 227.947 179.258 228.8C177.444 229.6 175.471 230 173.338 230H151.978V174.16ZM171.338 224.16C174.431 224.16 176.858 223.467 178.618 222.08C180.378 220.693 181.258 218.56 181.258 215.68V212.4C181.258 209.573 180.378 207.467 178.618 206.08C176.858 204.64 174.431 203.92 171.338 203.92H158.698V224.16H171.338ZM170.218 198.4C173.044 198.4 175.258 197.787 176.858 196.56C178.458 195.28 179.258 193.36 179.258 190.8V187.68C179.258 185.12 178.458 183.2 176.858 181.92C175.258 180.64 173.044 180 170.218 180H158.698V198.4H170.218ZM202.506 230V174.16H209.226V224.16H235.706V230H202.506ZM264.875 230.96C261.462 230.96 258.528 230.32 256.075 229.04C253.622 227.707 251.595 225.813 249.995 223.36C248.395 220.907 247.222 217.893 246.475 214.32C245.728 210.747 245.355 206.667 245.355 202.08C245.355 197.547 245.728 193.493 246.475 189.92C247.222 186.293 248.395 183.253 249.995 180.8C251.595 178.347 253.622 176.48 256.075 175.2C258.528 173.867 261.462 173.2 264.875 173.2C268.288 173.2 271.222 173.867 273.675 175.2C276.128 176.48 278.155 178.347 279.755 180.8C281.355 183.253 282.528 186.293 283.275 189.92C284.022 193.493 284.395 197.547 284.395 202.08C284.395 206.667 284.022 210.747 283.275 214.32C282.528 217.893 281.355 220.907 279.755 223.36C278.155 225.813 276.128 227.707 273.675 229.04C271.222 230.32 268.288 230.96 264.875 230.96ZM264.875 225.12C267.115 225.12 269.008 224.693 270.555 223.84C272.102 222.933 273.382 221.68 274.395 220.08C275.408 218.48 276.128 216.56 276.555 214.32C277.035 212.027 277.275 209.467 277.275 206.64V197.52C277.275 194.747 277.035 192.213 276.555 189.92C276.128 187.627 275.408 185.68 274.395 184.08C273.382 182.48 272.102 181.253 270.555 180.4C269.008 179.493 267.115 179.04 264.875 179.04C262.635 179.04 260.742 179.493 259.195 180.4C257.648 181.253 256.368 182.48 255.355 184.08C254.342 185.68 253.595 187.627 253.115 189.92C252.688 192.213 252.475 194.747 252.475 197.52V206.64C252.475 209.467 252.688 212.027 253.115 214.32C253.595 216.56 254.342 218.48 255.355 220.08C256.368 221.68 257.648 222.933 259.195 223.84C260.742 224.693 262.635 225.12 264.875 225.12ZM310.364 202.64L302.364 212.08V230H295.644V174.16H302.364V203.28H302.604L309.964 194L326.444 174.16H334.524L314.924 197.68L335.084 230H327.244L310.364 202.64Z" fill="white"/>
<path d="M56.6 174.16V173.16H55.6V174.16H56.6ZM87.48 181.2L88.2931 180.618L87.48 181.2ZM87.48 222.96L88.2931 223.542L87.48 222.96ZM56.6 230H55.6V231H56.6V230ZM81.96 219.52L81.1566 218.924L81.1501 218.933L81.96 219.52ZM81.96 184.64L81.15 185.227L81.1567 185.236L81.96 184.64ZM63.32 180V179H62.32V180H63.32ZM63.32 224.16H62.32V225.16H63.32V224.16ZM56.6 175.16H72.2V173.16H56.6V175.16ZM72.2 175.16C78.7712 175.16 83.5306 177.401 86.6669 181.782L88.2931 180.618C84.7094 175.612 79.2821 173.16 72.2 173.16V175.16ZM86.6669 181.782C89.8522 186.231 91.52 192.947 91.52 202.08H93.52C93.52 192.76 91.8279 185.555 88.2931 180.618L86.6669 181.782ZM91.52 202.08C91.52 211.213 89.8522 217.929 86.6669 222.378L88.2931 223.542C91.8279 218.605 93.52 211.4 93.52 202.08H91.52ZM86.6669 222.378C83.5306 226.759 78.7712 229 72.2 229V231C79.2821 231 84.7094 228.548 88.2931 223.542L86.6669 222.378ZM72.2 229H56.6V231H72.2V229ZM57.6 230V174.16H55.6V230H57.6ZM71.88 225.16C76.6174 225.16 80.3076 223.507 82.7699 220.107L81.1501 218.933C79.1324 221.72 76.1026 223.16 71.88 223.16V225.16ZM82.7633 220.116C85.2317 216.786 86.4 212.172 86.4 206.4H84.4C84.4 211.935 83.275 216.067 81.1567 218.924L82.7633 220.116ZM86.4 206.4V197.76H84.4V206.4H86.4ZM86.4 197.76C86.4 191.988 85.2317 187.374 82.7633 184.044L81.1567 185.236C83.275 188.093 84.4 192.225 84.4 197.76H86.4ZM82.7699 184.053C80.3076 180.653 76.6174 179 71.88 179V181C76.1026 181 79.1324 182.44 81.1501 185.227L82.7699 184.053ZM71.88 179H63.32V181H71.88V179ZM62.32 180V224.16H64.32V180H62.32ZM63.32 225.16H71.88V223.16H63.32V225.16ZM104.169 230H103.169V231H104.169V230ZM104.169 174.16V173.16H103.169V174.16H104.169ZM138.569 174.16H139.569V173.16H138.569V174.16ZM138.569 180V181H139.569V180H138.569ZM110.889 180V179H109.889V180H110.889ZM110.889 198.8H109.889V199.8H110.889V198.8ZM137.609 198.8H138.609V197.8H137.609V198.8ZM137.609 204.64V205.64H138.609V204.64H137.609ZM110.889 204.64V203.64H109.889V204.64H110.889ZM110.889 224.16H109.889V225.16H110.889V224.16ZM138.569 224.16H139.569V223.16H138.569V224.16ZM138.569 230V231H139.569V230H138.569ZM105.169 230V174.16H103.169V230H105.169ZM104.169 175.16H138.569V173.16H104.169V175.16ZM137.569 174.16V180H139.569V174.16H137.569ZM138.569 179H110.889V181H138.569V179ZM109.889 180V198.8H111.889V180H109.889ZM110.889 199.8H137.609V197.8H110.889V199.8ZM136.609 198.8V204.64H138.609V198.8H136.609ZM137.609 203.64H110.889V205.64H137.609V203.64ZM109.889 204.64V224.16H111.889V204.64H109.889ZM110.889 225.16H138.569V223.16H110.889V225.16ZM137.569 224.16V230H139.569V224.16H137.569ZM138.569 229H104.169V231H138.569V229ZM151.978 174.16V173.16H150.978V174.16H151.978ZM182.217 178.08L182.91 177.359V177.359L182.217 178.08ZM183.818 196.48L183.06 195.827L183.054 195.834L183.049 195.84L183.818 196.48ZM177.577 200.56L177.279 199.606L176.577 199.825V200.56H177.577ZM177.577 200.8H176.577V201.59L177.347 201.773L177.577 200.8ZM185.337 205.04L184.621 205.738L184.63 205.747L185.337 205.04ZM187.258 220.24L186.322 219.886L187.258 220.24ZM184.057 225.36L183.337 224.666L183.33 224.673L183.324 224.681L184.057 225.36ZM179.258 228.8L179.661 229.715L179.673 229.709L179.258 228.8ZM151.978 230H150.978V231H151.978V230ZM178.618 222.08L179.236 222.865L178.618 222.08ZM178.618 206.08L177.984 206.854L177.991 206.86L177.999 206.865L178.618 206.08ZM158.698 203.92V202.92H157.698V203.92H158.698ZM158.698 224.16H157.698V225.16H158.698V224.16ZM176.857 196.56L177.466 197.354L177.474 197.347L177.482 197.341L176.857 196.56ZM158.698 180V179H157.698V180H158.698ZM158.698 198.4H157.698V199.4H158.698V198.4ZM151.978 175.16H170.938V173.16H151.978V175.16ZM170.938 175.16C175.553 175.16 179.038 176.412 181.525 178.801L182.91 177.359C179.957 174.521 175.922 173.16 170.938 173.16V175.16ZM181.525 178.801C184.017 181.195 185.298 184.412 185.298 188.56H187.298C187.298 183.962 185.858 180.191 182.91 177.359L181.525 178.801ZM185.298 188.56C185.298 191.76 184.512 194.141 183.06 195.827L184.575 197.133C186.43 194.979 187.298 192.08 187.298 188.56H185.298ZM183.049 195.84C181.582 197.601 179.67 198.859 177.279 199.606L177.876 201.514C180.605 200.661 182.853 199.199 184.586 197.12L183.049 195.84ZM176.577 200.56V200.8H178.577V200.56H176.577ZM177.347 201.773C180.33 202.481 182.742 203.809 184.621 205.738L186.054 204.342C183.88 202.111 181.118 200.612 177.808 199.827L177.347 201.773ZM184.63 205.747C186.41 207.527 187.378 210.194 187.378 213.92H189.378C189.378 209.859 188.318 206.606 186.045 204.333L184.63 205.747ZM187.378 213.92C187.378 216.047 187.024 218.033 186.322 219.886L188.193 220.594C188.985 218.501 189.378 216.273 189.378 213.92H187.378ZM186.322 219.886C185.621 221.74 184.625 223.329 183.337 224.666L184.778 226.054C186.264 224.511 187.401 222.687 188.193 220.594L186.322 219.886ZM183.324 224.681C182.084 226.019 180.594 227.09 178.842 227.891L179.673 229.709C181.654 228.804 183.364 227.581 184.791 226.039L183.324 224.681ZM178.854 227.885C177.177 228.625 175.343 229 173.338 229V231C175.599 231 177.711 230.575 179.661 229.715L178.854 227.885ZM173.338 229H151.978V231H173.338V229ZM152.978 230V174.16H150.978V230H152.978ZM171.338 225.16C174.571 225.16 177.244 224.436 179.236 222.865L177.999 221.295C176.471 222.498 174.291 223.16 171.338 223.16V225.16ZM179.236 222.865C181.303 221.237 182.258 218.771 182.258 215.68H180.258C180.258 218.349 179.452 220.149 177.999 221.295L179.236 222.865ZM182.258 215.68V212.4H180.258V215.68H182.258ZM182.258 212.4C182.258 209.355 181.298 206.919 179.236 205.295L177.999 206.865C179.457 208.014 180.258 209.792 180.258 212.4H182.258ZM179.251 205.306C177.257 203.675 174.579 202.92 171.338 202.92V204.92C174.283 204.92 176.458 205.605 177.984 206.854L179.251 205.306ZM171.338 202.92H158.698V204.92H171.338V202.92ZM157.698 203.92V224.16H159.698V203.92H157.698ZM158.698 225.16H171.338V223.16H158.698V225.16ZM170.217 199.4C173.178 199.4 175.633 198.759 177.466 197.354L176.249 195.766C174.882 196.815 172.911 197.4 170.217 197.4V199.4ZM177.482 197.341C179.377 195.825 180.258 193.581 180.258 190.8H178.258C178.258 193.139 177.538 194.735 176.233 195.779L177.482 197.341ZM180.258 190.8V187.68H178.258V190.8H180.258ZM180.258 187.68C180.258 184.899 179.377 182.655 177.482 181.139L176.233 182.701C177.538 183.745 178.258 185.341 178.258 187.68H180.258ZM177.482 181.139C175.648 179.672 173.186 179 170.217 179V181C172.902 181 174.867 181.608 176.233 182.701L177.482 181.139ZM170.217 179H158.698V181H170.217V179ZM157.698 180V198.4H159.698V180H157.698ZM158.698 199.4H170.217V197.4H158.698V199.4ZM202.506 230H201.506V231H202.506V230ZM202.506 174.16V173.16H201.506V174.16H202.506ZM209.226 174.16H210.226V173.16H209.226V174.16ZM209.226 224.16H208.226V225.16H209.226V224.16ZM235.706 224.16H236.706V223.16H235.706V224.16ZM235.706 230V231H236.706V230H235.706ZM203.506 230V174.16H201.506V230H203.506ZM202.506 175.16H209.226V173.16H202.506V175.16ZM208.226 174.16V224.16H210.226V174.16H208.226ZM209.226 225.16H235.706V223.16H209.226V225.16ZM234.706 224.16V230H236.706V224.16H234.706ZM235.706 229H202.506V231H235.706V229ZM256.075 229.04L255.597 229.919L255.605 229.923L255.612 229.927L256.075 229.04ZM249.995 223.36L249.157 223.906L249.995 223.36ZM246.475 214.32L245.496 214.525L246.475 214.32ZM246.475 189.92L247.454 190.125L247.454 190.122L246.475 189.92ZM249.995 180.8L249.157 180.254L249.995 180.8ZM256.075 175.2L256.538 176.087L256.545 176.083L256.553 176.079L256.075 175.2ZM273.675 175.2L273.197 176.079L273.205 176.083L273.212 176.087L273.675 175.2ZM279.755 180.8L278.917 181.346L279.755 180.8ZM283.275 189.92L282.296 190.122L282.296 190.125L283.275 189.92ZM279.755 223.36L278.917 222.814L279.755 223.36ZM273.675 229.04L274.138 229.927L274.145 229.923L274.153 229.919L273.675 229.04ZM270.555 223.84L271.038 224.716L271.049 224.709L271.061 224.703L270.555 223.84ZM274.395 220.08L275.24 220.615L274.395 220.08ZM276.555 214.32L275.576 214.115L275.574 214.124L275.573 214.133L276.555 214.32ZM276.555 189.92L275.572 190.103L275.574 190.114L275.576 190.125L276.555 189.92ZM274.395 184.08L273.55 184.615L274.395 184.08ZM270.555 180.4L270.049 181.263L270.061 181.269L270.072 181.276L270.555 180.4ZM259.195 180.4L259.678 181.276L259.689 181.269L259.701 181.263L259.195 180.4ZM255.355 184.08L256.2 184.615L255.355 184.08ZM253.115 189.92L252.136 189.715L252.134 189.726L252.132 189.737L253.115 189.92ZM253.115 214.32L252.132 214.503L252.134 214.516L252.137 214.53L253.115 214.32ZM255.355 220.08L256.2 219.545L255.355 220.08ZM259.195 223.84L258.689 224.703L258.701 224.709L258.712 224.716L259.195 223.84ZM264.875 229.96C261.586 229.96 258.819 229.343 256.538 228.153L255.612 229.927C258.238 231.297 261.338 231.96 264.875 231.96V229.96ZM256.553 228.161C254.252 226.911 252.347 225.135 250.833 222.814L249.157 223.906C250.843 226.492 252.991 228.502 255.597 229.919L256.553 228.161ZM250.833 222.814C249.315 220.487 248.181 217.596 247.454 214.115L245.496 214.525C246.262 218.191 247.475 221.327 249.157 223.906L250.833 222.814ZM247.454 214.115C246.724 210.624 246.355 206.615 246.355 202.08H244.355C244.355 206.719 244.732 210.869 245.496 214.525L247.454 214.115ZM246.355 202.08C246.355 197.6 246.724 193.617 247.454 190.125L245.496 189.715C244.733 193.37 244.355 197.494 244.355 202.08H246.355ZM247.454 190.122C248.182 186.587 249.317 183.671 250.833 181.346L249.157 180.254C247.473 182.836 246.261 186 245.496 189.718L247.454 190.122ZM250.833 181.346C252.345 179.028 254.245 177.283 256.538 176.087L255.612 174.313C252.998 175.677 250.845 177.665 249.157 180.254L250.833 181.346ZM256.553 176.079C258.83 174.841 261.592 174.2 264.875 174.2V172.2C261.332 172.2 258.227 172.893 255.597 174.321L256.553 176.079ZM264.875 174.2C268.158 174.2 270.92 174.841 273.197 176.079L274.153 174.321C271.523 172.893 268.418 172.2 264.875 172.2V174.2ZM273.212 176.087C275.505 177.283 277.405 179.028 278.917 181.346L280.593 180.254C278.905 177.665 276.752 175.677 274.138 174.313L273.212 176.087ZM278.917 181.346C280.433 183.671 281.568 186.587 282.296 190.122L284.254 189.718C283.489 186 282.277 182.836 280.593 180.254L278.917 181.346ZM282.296 190.125C283.026 193.617 283.395 197.6 283.395 202.08H285.395C285.395 197.494 285.017 193.37 284.254 189.715L282.296 190.125ZM283.395 202.08C283.395 206.615 283.026 210.624 282.296 214.115L284.254 214.525C285.018 210.869 285.395 206.719 285.395 202.08H283.395ZM282.296 214.115C281.569 217.596 280.435 220.487 278.917 222.814L280.593 223.906C282.275 221.327 283.488 218.191 284.254 214.525L282.296 214.115ZM278.917 222.814C277.403 225.135 275.498 226.911 273.197 228.161L274.153 229.919C276.759 228.502 278.907 226.492 280.593 223.906L278.917 222.814ZM273.212 228.153C270.931 229.343 268.164 229.96 264.875 229.96V231.96C268.412 231.96 271.512 231.297 274.138 229.927L273.212 228.153ZM264.875 226.12C267.24 226.12 269.309 225.67 271.038 224.716L270.072 222.964C268.708 223.717 266.99 224.12 264.875 224.12V226.12ZM271.061 224.703C272.753 223.711 274.146 222.342 275.24 220.615L273.55 219.545C272.617 221.018 271.451 222.156 270.049 222.977L271.061 224.703ZM275.24 220.615C276.333 218.889 277.092 216.846 277.537 214.507L275.573 214.133C275.165 216.274 274.484 218.071 273.55 219.545L275.24 220.615ZM277.534 214.525C278.03 212.152 278.275 209.522 278.275 206.64H276.275C276.275 209.411 276.04 211.901 275.576 214.115L277.534 214.525ZM278.275 206.64V197.52H276.275V206.64H278.275ZM278.275 197.52C278.275 194.69 278.03 192.087 277.534 189.715L275.576 190.125C276.04 192.34 276.275 194.803 276.275 197.52H278.275ZM277.538 189.737C277.093 187.347 276.335 185.274 275.24 183.545L273.55 184.615C274.482 186.086 275.163 187.907 275.572 190.103L277.538 189.737ZM275.24 183.545C274.143 181.813 272.743 180.465 271.038 179.524L270.072 181.276C271.461 182.042 272.62 183.147 273.55 184.615L275.24 183.545ZM271.061 179.537C269.327 178.521 267.249 178.04 264.875 178.04V180.04C266.981 180.04 268.69 180.466 270.049 181.263L271.061 179.537ZM264.875 178.04C262.501 178.04 260.423 178.521 258.689 179.537L259.701 181.263C261.06 180.466 262.769 180.04 264.875 180.04V178.04ZM258.712 179.524C257.007 180.465 255.607 181.813 254.51 183.545L256.2 184.615C257.13 183.147 258.289 182.042 259.678 181.276L258.712 179.524ZM254.51 183.545C253.42 185.267 252.635 187.331 252.136 189.715L254.094 190.125C254.555 187.922 255.264 186.093 256.2 184.615L254.51 183.545ZM252.132 189.737C251.692 192.101 251.475 194.696 251.475 197.52H253.475C253.475 194.797 253.685 192.326 254.098 190.103L252.132 189.737ZM251.475 197.52V206.64H253.475V197.52H251.475ZM251.475 206.64C251.475 209.516 251.692 212.138 252.132 214.503L254.098 214.137C253.685 211.915 253.475 209.418 253.475 206.64H251.475ZM252.137 214.53C252.637 216.862 253.422 218.897 254.51 220.615L256.2 219.545C255.261 218.063 254.553 216.258 254.093 214.11L252.137 214.53ZM254.51 220.615C255.604 222.342 256.997 223.711 258.689 224.703L259.701 222.977C258.299 222.156 257.133 221.018 256.2 219.545L254.51 220.615ZM258.712 224.716C260.441 225.67 262.51 226.12 264.875 226.12V224.12C262.76 224.12 261.042 223.717 259.678 222.964L258.712 224.716ZM310.364 202.64L311.215 202.115L310.491 200.943L309.601 201.993L310.364 202.64ZM302.364 212.08L301.601 211.433L301.364 211.713V212.08H302.364ZM302.364 230V231H303.364V230H302.364ZM295.644 230H294.644V231H295.644V230ZM295.644 174.16V173.16H294.644V174.16H295.644ZM302.364 174.16H303.364V173.16H302.364V174.16ZM302.364 203.28H301.364V204.28H302.364V203.28ZM302.604 203.28V204.28H303.087L303.387 203.901L302.604 203.28ZM309.964 194L309.195 193.361L309.187 193.37L309.18 193.379L309.964 194ZM326.444 174.16V173.16H325.974L325.675 173.521L326.444 174.16ZM334.524 174.16L335.292 174.8L336.659 173.16H334.524V174.16ZM314.924 197.68L314.156 197.04L313.692 197.596L314.075 198.209L314.924 197.68ZM335.084 230V231H336.886L335.932 229.471L335.084 230ZM327.244 230L326.393 230.525L326.686 231H327.244V230ZM309.601 201.993L301.601 211.433L303.127 212.727L311.127 203.287L309.601 201.993ZM301.364 212.08V230H303.364V212.08H301.364ZM302.364 229H295.644V231H302.364V229ZM296.644 230V174.16H294.644V230H296.644ZM295.644 175.16H302.364V173.16H295.644V175.16ZM301.364 174.16V203.28H303.364V174.16H301.364ZM302.364 204.28H302.604V202.28H302.364V204.28ZM303.387 203.901L310.747 194.621L309.18 193.379L301.82 202.659L303.387 203.901ZM310.733 194.639L327.213 174.799L325.675 173.521L309.195 193.361L310.733 194.639ZM326.444 175.16H334.524V173.16H326.444V175.16ZM333.756 173.52L314.156 197.04L315.692 198.32L335.292 174.8L333.756 173.52ZM314.075 198.209L334.235 230.529L335.932 229.471L315.772 197.151L314.075 198.209ZM335.084 229H327.244V231H335.084V229ZM328.095 229.475L311.215 202.115L309.513 203.165L326.393 230.525L328.095 229.475Z" fill="black" mask="url(#path-8-outside-1_0_1)"/>
</g>
<g filter="url(#filter3_d_0_1)">
<path d="M454.592 179V139.912H472.176C473.968 139.912 475.573 140.211 476.992 140.808C478.448 141.368 479.68 142.189 480.688 143.272C481.696 144.317 482.461 145.587 482.984 147.08C483.507 148.573 483.768 150.216 483.768 152.008C483.768 153.837 483.507 155.499 482.984 156.992C482.461 158.448 481.696 159.717 480.688 160.8C479.68 161.845 478.448 162.667 476.992 163.264C475.573 163.824 473.968 164.104 472.176 164.104H461.984V179H454.592ZM461.984 157.72H471.504C472.923 157.72 474.043 157.347 474.864 156.6C475.685 155.816 476.096 154.715 476.096 153.296V150.72C476.096 149.301 475.685 148.219 474.864 147.472C474.043 146.725 472.923 146.352 471.504 146.352H461.984V157.72ZM489.472 179V149.768H496.64V155.816H496.92C497.107 155.032 497.387 154.285 497.76 153.576C498.171 152.829 498.693 152.176 499.328 151.616C499.963 151.056 500.709 150.608 501.568 150.272C502.464 149.936 503.491 149.768 504.648 149.768H506.216V156.544H503.976C501.549 156.544 499.72 156.899 498.488 157.608C497.256 158.317 496.64 159.475 496.64 161.08V179H489.472ZM515.041 145.512C513.547 145.512 512.465 145.176 511.793 144.504C511.158 143.832 510.841 142.973 510.841 141.928V140.808C510.841 139.763 511.158 138.904 511.793 138.232C512.465 137.56 513.547 137.224 515.041 137.224C516.497 137.224 517.561 137.56 518.233 138.232C518.905 138.904 519.241 139.763 519.241 140.808V141.928C519.241 142.973 518.905 143.832 518.233 144.504C517.561 145.176 516.497 145.512 515.041 145.512ZM511.457 149.768H518.625V179H511.457V149.768ZM533.205 179L523.461 149.768H530.517L534.605 162.368L537.461 172.784H537.853L540.709 162.368L544.685 149.768H551.517L541.717 179H533.205ZM577.312 179C575.744 179 574.493 178.552 573.56 177.656C572.664 176.723 572.104 175.491 571.88 173.96H571.544C571.059 175.864 570.069 177.301 568.576 178.272C567.083 179.205 565.235 179.672 563.032 179.672C560.045 179.672 557.749 178.888 556.144 177.32C554.539 175.752 553.736 173.661 553.736 171.048C553.736 168.024 554.819 165.784 556.984 164.328C559.149 162.835 562.229 162.088 566.224 162.088H571.208V159.96C571.208 158.317 570.779 157.048 569.92 156.152C569.061 155.256 567.68 154.808 565.776 154.808C564.096 154.808 562.733 155.181 561.688 155.928C560.68 156.637 559.821 157.496 559.112 158.504L554.856 154.696C555.939 153.016 557.376 151.672 559.168 150.664C560.96 149.619 563.331 149.096 566.28 149.096C570.237 149.096 573.243 149.992 575.296 151.784C577.349 153.576 578.376 156.152 578.376 159.512V173.288H581.288V179H577.312ZM565.44 174.464C567.045 174.464 568.408 174.109 569.528 173.4C570.648 172.691 571.208 171.645 571.208 170.264V166.4H566.616C562.883 166.4 561.016 167.595 561.016 169.984V170.936C561.016 172.131 561.389 173.027 562.136 173.624C562.92 174.184 564.021 174.464 565.44 174.464ZM598.625 179.672C596.46 179.672 594.537 179.317 592.857 178.608C591.177 177.899 589.759 176.872 588.601 175.528C587.481 174.184 586.623 172.579 586.025 170.712C585.428 168.808 585.129 166.68 585.129 164.328C585.129 161.976 585.428 159.867 586.025 158C586.623 156.133 587.481 154.547 588.601 153.24C589.759 151.896 591.177 150.869 592.857 150.16C594.537 149.451 596.46 149.096 598.625 149.096C601.575 149.096 604.001 149.749 605.905 151.056C607.847 152.363 609.247 154.173 610.105 156.488L604.225 159.12C603.889 157.888 603.255 156.88 602.321 156.096C601.425 155.275 600.193 154.864 598.625 154.864C596.609 154.864 595.097 155.499 594.089 156.768C593.119 158.037 592.633 159.699 592.633 161.752V167.072C592.633 169.125 593.119 170.787 594.089 172.056C595.097 173.288 596.609 173.904 598.625 173.904C600.343 173.904 601.668 173.475 602.601 172.616C603.535 171.72 604.263 170.619 604.785 169.312L610.273 171.944C609.303 174.52 607.828 176.461 605.849 177.768C603.871 179.037 601.463 179.672 598.625 179.672ZM633.72 149.768H640.44L628.68 184.208C628.307 185.253 627.878 186.149 627.392 186.896C626.944 187.68 626.403 188.315 625.768 188.8C625.134 189.285 624.368 189.64 623.472 189.864C622.576 190.088 621.531 190.2 620.336 190.2H616.024V184.488H621.288L622.632 180.4L612.16 149.768H619.272L624.368 165.224L626.272 172.616H626.608L628.624 165.224L633.72 149.768ZM679.906 179C678.338 179 677.087 178.552 676.154 177.656C675.258 176.723 674.698 175.491 674.474 173.96H674.138C673.652 175.864 672.663 177.301 671.17 178.272C669.676 179.205 667.828 179.672 665.626 179.672C662.639 179.672 660.343 178.888 658.738 177.32C657.132 175.752 656.33 173.661 656.33 171.048C656.33 168.024 657.412 165.784 659.578 164.328C661.743 162.835 664.823 162.088 668.818 162.088H673.802V159.96C673.802 158.317 673.372 157.048 672.514 156.152C671.655 155.256 670.274 154.808 668.37 154.808C666.69 154.808 665.327 155.181 664.282 155.928C663.274 156.637 662.415 157.496 661.706 158.504L657.45 154.696C658.532 153.016 659.97 151.672 661.762 150.664C663.554 149.619 665.924 149.096 668.874 149.096C672.831 149.096 675.836 149.992 677.89 151.784C679.943 153.576 680.97 156.152 680.97 159.512V173.288H683.882V179H679.906ZM668.034 174.464C669.639 174.464 671.002 174.109 672.122 173.4C673.242 172.691 673.802 171.645 673.802 170.264V166.4H669.21C665.476 166.4 663.61 167.595 663.61 169.984V170.936C663.61 172.131 663.983 173.027 664.73 173.624C665.514 174.184 666.615 174.464 668.034 174.464ZM689.683 179V149.768H696.851V154.64H697.131C697.728 153.072 698.662 151.765 699.931 150.72C701.238 149.637 703.03 149.096 705.307 149.096C708.331 149.096 710.646 150.085 712.251 152.064C713.856 154.043 714.659 156.861 714.659 160.52V179H707.491V161.248C707.491 159.157 707.118 157.589 706.371 156.544C705.624 155.499 704.392 154.976 702.675 154.976C701.928 154.976 701.2 155.088 700.491 155.312C699.819 155.499 699.203 155.797 698.643 156.208C698.12 156.581 697.691 157.067 697.355 157.664C697.019 158.224 696.851 158.896 696.851 159.68V179H689.683ZM740.749 174.128H740.469C739.946 175.808 738.957 177.152 737.501 178.16C736.045 179.168 734.346 179.672 732.405 179.672C728.709 179.672 725.872 178.347 723.893 175.696C721.952 173.045 720.981 169.256 720.981 164.328C720.981 159.437 721.952 155.685 723.893 153.072C725.872 150.421 728.709 149.096 732.405 149.096C734.346 149.096 736.045 149.6 737.501 150.608C738.957 151.579 739.946 152.904 740.469 154.584H740.749V137.56H747.917V179H740.749V174.128ZM734.701 173.736C736.418 173.736 737.856 173.325 739.013 172.504C740.17 171.683 740.749 170.507 740.749 168.976V159.68C740.749 158.261 740.17 157.123 739.013 156.264C737.856 155.405 736.418 154.976 734.701 154.976C732.834 154.976 731.322 155.611 730.165 156.88C729.045 158.112 728.485 159.773 728.485 161.864V166.904C728.485 168.995 729.045 170.656 730.165 171.888C731.322 173.12 732.834 173.736 734.701 173.736ZM769.865 179V139.912H795.009V146.464H777.257V155.928H792.713V162.48H777.257V179H769.865ZM800.207 179V149.768H807.375V155.816H807.655C807.841 155.032 808.121 154.285 808.495 153.576C808.905 152.829 809.428 152.176 810.062 151.616C810.697 151.056 811.444 150.608 812.303 150.272C813.199 149.936 814.225 149.768 815.383 149.768H816.951V156.544H814.711C812.284 156.544 810.455 156.899 809.223 157.608C807.991 158.317 807.375 159.475 807.375 161.08V179H800.207ZM833.733 179.672C831.568 179.672 829.627 179.317 827.909 178.608C826.229 177.861 824.792 176.835 823.597 175.528C822.44 174.184 821.544 172.579 820.909 170.712C820.275 168.808 819.957 166.68 819.957 164.328C819.957 162.013 820.256 159.923 820.853 158.056C821.488 156.189 822.384 154.603 823.541 153.296C824.699 151.952 826.117 150.925 827.797 150.216C829.477 149.469 831.381 149.096 833.509 149.096C835.787 149.096 837.765 149.488 839.445 150.272C841.125 151.056 842.507 152.12 843.589 153.464C844.672 154.808 845.475 156.376 845.997 158.168C846.557 159.923 846.837 161.808 846.837 163.824V166.176H827.405V166.904C827.405 169.032 828.003 170.749 829.197 172.056C830.392 173.325 832.165 173.96 834.517 173.96C836.309 173.96 837.765 173.587 838.885 172.84C840.043 172.093 841.069 171.141 841.965 169.984L845.829 174.296C844.635 175.976 842.992 177.301 840.901 178.272C838.848 179.205 836.459 179.672 833.733 179.672ZM833.621 154.472C831.717 154.472 830.205 155.107 829.085 156.376C827.965 157.645 827.405 159.288 827.405 161.304V161.752H839.389V161.248C839.389 159.232 838.885 157.608 837.877 156.376C836.907 155.107 835.488 154.472 833.621 154.472ZM864.96 179.672C862.795 179.672 860.853 179.317 859.136 178.608C857.456 177.861 856.019 176.835 854.824 175.528C853.667 174.184 852.771 172.579 852.136 170.712C851.501 168.808 851.184 166.68 851.184 164.328C851.184 162.013 851.483 159.923 852.08 158.056C852.715 156.189 853.611 154.603 854.768 153.296C855.925 151.952 857.344 150.925 859.024 150.216C860.704 149.469 862.608 149.096 864.736 149.096C867.013 149.096 868.992 149.488 870.672 150.272C872.352 151.056 873.733 152.12 874.816 153.464C875.899 154.808 876.701 156.376 877.224 158.168C877.784 159.923 878.064 161.808 878.064 163.824V166.176H858.632V166.904C858.632 169.032 859.229 170.749 860.424 172.056C861.619 173.325 863.392 173.96 865.744 173.96C867.536 173.96 868.992 173.587 870.112 172.84C871.269 172.093 872.296 171.141 873.192 169.984L877.056 174.296C875.861 175.976 874.219 177.301 872.128 178.272C870.075 179.205 867.685 179.672 864.96 179.672ZM864.848 154.472C862.944 154.472 861.432 155.107 860.312 156.376C859.192 157.645 858.632 159.288 858.632 161.304V161.752H870.616V161.248C870.616 159.232 870.112 157.608 869.104 156.376C868.133 155.107 866.715 154.472 864.848 154.472ZM902.515 174.128H902.235C901.712 175.808 900.723 177.152 899.267 178.16C897.811 179.168 896.112 179.672 894.171 179.672C890.475 179.672 887.637 178.347 885.659 175.696C883.717 173.045 882.747 169.256 882.747 164.328C882.747 159.437 883.717 155.685 885.659 153.072C887.637 150.421 890.475 149.096 894.171 149.096C896.112 149.096 897.811 149.6 899.267 150.608C900.723 151.579 901.712 152.904 902.235 154.584H902.515V137.56H909.683V179H902.515V174.128ZM896.467 173.736C898.184 173.736 899.621 173.325 900.779 172.504C901.936 171.683 902.515 170.507 902.515 168.976V159.68C902.515 158.261 901.936 157.123 900.779 156.264C899.621 155.405 898.184 154.976 896.467 154.976C894.6 154.976 893.088 155.611 891.931 156.88C890.811 158.112 890.251 159.773 890.251 161.864V166.904C890.251 168.995 890.811 170.656 891.931 171.888C893.088 173.12 894.6 173.736 896.467 173.736ZM929.541 179.672C927.45 179.672 925.565 179.317 923.885 178.608C922.242 177.899 920.823 176.872 919.629 175.528C918.471 174.184 917.575 172.579 916.941 170.712C916.306 168.808 915.989 166.68 915.989 164.328C915.989 161.976 916.306 159.867 916.941 158C917.575 156.133 918.471 154.547 919.629 153.24C920.823 151.896 922.242 150.869 923.885 150.16C925.565 149.451 927.45 149.096 929.541 149.096C931.631 149.096 933.517 149.451 935.197 150.16C936.877 150.869 938.295 151.896 939.453 153.24C940.647 154.547 941.562 156.133 942.197 158C942.831 159.867 943.149 161.976 943.149 164.328C943.149 166.68 942.831 168.808 942.197 170.712C941.562 172.579 940.647 174.184 939.453 175.528C938.295 176.872 936.877 177.899 935.197 178.608C933.517 179.317 931.631 179.672 929.541 179.672ZM929.541 173.904C931.445 173.904 932.938 173.325 934.021 172.168C935.103 171.011 935.645 169.312 935.645 167.072V161.64C935.645 159.437 935.103 157.757 934.021 156.6C932.938 155.443 931.445 154.864 929.541 154.864C927.674 154.864 926.199 155.443 925.117 156.6C924.034 157.757 923.493 159.437 923.493 161.64V167.072C923.493 169.312 924.034 171.011 925.117 172.168C926.199 173.325 927.674 173.904 929.541 173.904ZM949.503 179V149.768H956.671V154.64H956.951C957.511 153.109 958.407 151.803 959.639 150.72C960.871 149.637 962.589 149.096 964.791 149.096C966.807 149.096 968.543 149.581 969.999 150.552C971.455 151.523 972.538 152.997 973.247 154.976H973.359C973.882 153.333 974.909 151.952 976.439 150.832C978.007 149.675 979.967 149.096 982.319 149.096C985.194 149.096 987.397 150.085 988.927 152.064C990.495 154.043 991.279 156.861 991.279 160.52V179H984.111V161.248C984.111 157.067 982.543 154.976 979.407 154.976C978.698 154.976 978.007 155.088 977.335 155.312C976.701 155.499 976.122 155.797 975.599 156.208C975.114 156.581 974.722 157.067 974.423 157.664C974.125 158.224 973.975 158.896 973.975 159.68V179H966.807V161.248C966.807 157.067 965.239 154.976 962.103 154.976C961.431 154.976 960.759 155.088 960.087 155.312C959.453 155.499 958.874 155.797 958.351 156.208C957.866 156.581 957.455 157.067 957.119 157.664C956.821 158.224 956.671 158.896 956.671 159.68V179H949.503ZM454.144 252V222.768H461.312V227.64H461.592C462.152 226.109 463.048 224.803 464.28 223.72C465.512 222.637 467.229 222.096 469.432 222.096C471.448 222.096 473.184 222.581 474.64 223.552C476.096 224.523 477.179 225.997 477.888 227.976H478C478.523 226.333 479.549 224.952 481.08 223.832C482.648 222.675 484.608 222.096 486.96 222.096C489.835 222.096 492.037 223.085 493.568 225.064C495.136 227.043 495.92 229.861 495.92 233.52V252H488.752V234.248C488.752 230.067 487.184 227.976 484.048 227.976C483.339 227.976 482.648 228.088 481.976 228.312C481.341 228.499 480.763 228.797 480.24 229.208C479.755 229.581 479.363 230.067 479.064 230.664C478.765 231.224 478.616 231.896 478.616 232.68V252H471.448V234.248C471.448 230.067 469.88 227.976 466.744 227.976C466.072 227.976 465.4 228.088 464.728 228.312C464.093 228.499 463.515 228.797 462.992 229.208C462.507 229.581 462.096 230.067 461.76 230.664C461.461 231.224 461.312 231.896 461.312 232.68V252H454.144ZM525.359 252C523.791 252 522.54 251.552 521.607 250.656C520.711 249.723 520.151 248.491 519.927 246.96H519.591C519.106 248.864 518.116 250.301 516.623 251.272C515.13 252.205 513.282 252.672 511.079 252.672C508.092 252.672 505.796 251.888 504.191 250.32C502.586 248.752 501.783 246.661 501.783 244.048C501.783 241.024 502.866 238.784 505.031 237.328C507.196 235.835 510.276 235.088 514.271 235.088H519.255V232.96C519.255 231.317 518.826 230.048 517.967 229.152C517.108 228.256 515.727 227.808 513.823 227.808C512.143 227.808 510.78 228.181 509.735 228.928C508.727 229.637 507.868 230.496 507.159 231.504L502.903 227.696C503.986 226.016 505.423 224.672 507.215 223.664C509.007 222.619 511.378 222.096 514.327 222.096C518.284 222.096 521.29 222.992 523.343 224.784C525.396 226.576 526.423 229.152 526.423 232.512V246.288H529.335V252H525.359ZM513.487 247.464C515.092 247.464 516.455 247.109 517.575 246.4C518.695 245.691 519.255 244.645 519.255 243.264V239.4H514.663C510.93 239.4 509.063 240.595 509.063 242.984V243.936C509.063 245.131 509.436 246.027 510.183 246.624C510.967 247.184 512.068 247.464 513.487 247.464ZM544.045 252C541.581 252 539.696 251.365 538.389 250.096C537.12 248.789 536.485 246.941 536.485 244.552V228.48H532.173V222.768H534.413C535.496 222.768 536.224 222.525 536.597 222.04C537.008 221.517 537.213 220.752 537.213 219.744V214.76H543.653V222.768H549.645V228.48H543.653V246.288H549.197V252H544.045ZM564.663 252C562.199 252 560.313 251.365 559.007 250.096C557.737 248.789 557.103 246.941 557.103 244.552V228.48H552.791V222.768H555.031C556.113 222.768 556.841 222.525 557.215 222.04C557.625 221.517 557.831 220.752 557.831 219.744V214.76H564.271V222.768H570.263V228.48H564.271V246.288H569.815V252H564.663ZM588.077 252.672C585.912 252.672 583.971 252.317 582.253 251.608C580.573 250.861 579.136 249.835 577.941 248.528C576.784 247.184 575.888 245.579 575.253 243.712C574.619 241.808 574.301 239.68 574.301 237.328C574.301 235.013 574.6 232.923 575.197 231.056C575.832 229.189 576.728 227.603 577.885 226.296C579.043 224.952 580.461 223.925 582.141 223.216C583.821 222.469 585.725 222.096 587.853 222.096C590.131 222.096 592.109 222.488 593.789 223.272C595.469 224.056 596.851 225.12 597.933 226.464C599.016 227.808 599.819 229.376 600.341 231.168C600.901 232.923 601.181 234.808 601.181 236.824V239.176H581.749V239.904C581.749 242.032 582.347 243.749 583.541 245.056C584.736 246.325 586.509 246.96 588.861 246.96C590.653 246.96 592.109 246.587 593.229 245.84C594.387 245.093 595.413 244.141 596.309 242.984L600.173 247.296C598.979 248.976 597.336 250.301 595.245 251.272C593.192 252.205 590.803 252.672 588.077 252.672ZM587.965 227.472C586.061 227.472 584.549 228.107 583.429 229.376C582.309 230.645 581.749 232.288 581.749 234.304V234.752H593.733V234.248C593.733 232.232 593.229 230.608 592.221 229.376C591.251 228.107 589.832 227.472 587.965 227.472ZM607.488 252V222.768H614.656V228.816H614.936C615.122 228.032 615.402 227.285 615.776 226.576C616.186 225.829 616.709 225.176 617.344 224.616C617.978 224.056 618.725 223.608 619.584 223.272C620.48 222.936 621.506 222.768 622.664 222.768H624.232V229.544H621.992C619.565 229.544 617.736 229.899 616.504 230.608C615.272 231.317 614.656 232.475 614.656 234.08V252H607.488ZM629.188 252.616C627.657 252.616 626.518 252.243 625.772 251.496C625.062 250.712 624.708 249.723 624.708 248.528V247.52C624.708 246.325 625.062 245.336 625.772 244.552C626.518 243.768 627.657 243.376 629.188 243.376C630.756 243.376 631.894 243.768 632.604 244.552C633.313 245.336 633.668 246.325 633.668 247.52V248.528C633.668 249.723 633.313 250.712 632.604 251.496C631.894 252.243 630.756 252.616 629.188 252.616ZM655.35 212.912H669.574C672.112 212.912 674.408 213.323 676.462 214.144C678.552 214.965 680.326 216.197 681.782 217.84C683.275 219.445 684.414 221.48 685.198 223.944C686.019 226.371 686.43 229.208 686.43 232.456C686.43 235.704 686.019 238.56 685.198 241.024C684.414 243.451 683.275 245.485 681.782 247.128C680.326 248.733 678.552 249.947 676.462 250.768C674.408 251.589 672.112 252 669.574 252H655.35V212.912ZM669.574 245.448C672.336 245.448 674.52 244.645 676.126 243.04C677.768 241.397 678.59 238.896 678.59 235.536V229.376C678.59 226.016 677.768 223.533 676.126 221.928C674.52 220.285 672.336 219.464 669.574 219.464H662.742V245.448H669.574ZM705.327 252.672C703.162 252.672 701.221 252.317 699.503 251.608C697.823 250.861 696.386 249.835 695.191 248.528C694.034 247.184 693.138 245.579 692.503 243.712C691.869 241.808 691.551 239.68 691.551 237.328C691.551 235.013 691.85 232.923 692.447 231.056C693.082 229.189 693.978 227.603 695.135 226.296C696.293 224.952 697.711 223.925 699.391 223.216C701.071 222.469 702.975 222.096 705.103 222.096C707.381 222.096 709.359 222.488 711.039 223.272C712.719 224.056 714.101 225.12 715.183 226.464C716.266 227.808 717.069 229.376 717.591 231.168C718.151 232.923 718.431 234.808 718.431 236.824V239.176H698.999V239.904C698.999 242.032 699.597 243.749 700.791 245.056C701.986 246.325 703.759 246.96 706.111 246.96C707.903 246.96 709.359 246.587 710.479 245.84C711.637 245.093 712.663 244.141 713.559 242.984L717.423 247.296C716.229 248.976 714.586 250.301 712.495 251.272C710.442 252.205 708.053 252.672 705.327 252.672ZM705.215 227.472C703.311 227.472 701.799 228.107 700.679 229.376C699.559 230.645 698.999 232.288 698.999 234.304V234.752H710.983V234.248C710.983 232.232 710.479 230.608 709.471 229.376C708.501 228.107 707.082 227.472 705.215 227.472ZM724.738 252V222.768H731.906V227.64H732.186C732.746 226.109 733.642 224.803 734.874 223.72C736.106 222.637 737.823 222.096 740.026 222.096C742.042 222.096 743.778 222.581 745.234 223.552C746.69 224.523 747.772 225.997 748.482 227.976H748.594C749.116 226.333 750.143 224.952 751.674 223.832C753.242 222.675 755.202 222.096 757.554 222.096C760.428 222.096 762.631 223.085 764.162 225.064C765.73 227.043 766.514 229.861 766.514 233.52V252H759.346V234.248C759.346 230.067 757.778 227.976 754.642 227.976C753.932 227.976 753.242 228.088 752.57 228.312C751.935 228.499 751.356 228.797 750.834 229.208C750.348 229.581 749.956 230.067 749.658 230.664C749.359 231.224 749.21 231.896 749.21 232.68V252H742.042V234.248C742.042 230.067 740.474 227.976 737.338 227.976C736.666 227.976 735.994 228.088 735.322 228.312C734.687 228.499 734.108 228.797 733.586 229.208C733.1 229.581 732.69 230.067 732.354 230.664C732.055 231.224 731.906 231.896 731.906 232.68V252H724.738ZM795.953 252C794.385 252 793.134 251.552 792.201 250.656C791.305 249.723 790.745 248.491 790.521 246.96H790.185C789.699 248.864 788.71 250.301 787.217 251.272C785.723 252.205 783.875 252.672 781.673 252.672C778.686 252.672 776.39 251.888 774.785 250.32C773.179 248.752 772.377 246.661 772.377 244.048C772.377 241.024 773.459 238.784 775.625 237.328C777.79 235.835 780.87 235.088 784.865 235.088H789.849V232.96C789.849 231.317 789.419 230.048 788.561 229.152C787.702 228.256 786.321 227.808 784.417 227.808C782.737 227.808 781.374 228.181 780.329 228.928C779.321 229.637 778.462 230.496 777.753 231.504L773.497 227.696C774.579 226.016 776.017 224.672 777.809 223.664C779.601 222.619 781.971 222.096 784.921 222.096C788.878 222.096 791.883 222.992 793.937 224.784C795.99 226.576 797.017 229.152 797.017 232.512V246.288H799.929V252H795.953ZM784.081 247.464C785.686 247.464 787.049 247.109 788.169 246.4C789.289 245.691 789.849 244.645 789.849 243.264V239.4H785.257C781.523 239.4 779.657 240.595 779.657 242.984V243.936C779.657 245.131 780.03 246.027 780.777 246.624C781.561 247.184 782.662 247.464 784.081 247.464ZM805.73 252V222.768H812.898V227.64H813.178C813.775 226.072 814.709 224.765 815.978 223.72C817.285 222.637 819.077 222.096 821.354 222.096C824.378 222.096 826.693 223.085 828.298 225.064C829.903 227.043 830.706 229.861 830.706 233.52V252H823.538V234.248C823.538 232.157 823.165 230.589 822.418 229.544C821.671 228.499 820.439 227.976 818.722 227.976C817.975 227.976 817.247 228.088 816.538 228.312C815.866 228.499 815.25 228.797 814.69 229.208C814.167 229.581 813.738 230.067 813.402 230.664C813.066 231.224 812.898 231.896 812.898 232.68V252H805.73ZM856.796 247.128H856.516C855.993 248.808 855.004 250.152 853.548 251.16C852.092 252.168 850.393 252.672 848.452 252.672C844.756 252.672 841.918 251.347 839.94 248.696C837.998 246.045 837.028 242.256 837.028 237.328C837.028 232.437 837.998 228.685 839.94 226.072C841.918 223.421 844.756 222.096 848.452 222.096C850.393 222.096 852.092 222.6 853.548 223.608C855.004 224.579 855.993 225.904 856.516 227.584H856.796V210.56H863.964V252H856.796V247.128ZM850.748 246.736C852.465 246.736 853.902 246.325 855.06 245.504C856.217 244.683 856.796 243.507 856.796 241.976V232.68C856.796 231.261 856.217 230.123 855.06 229.264C853.902 228.405 852.465 227.976 850.748 227.976C848.881 227.976 847.369 228.611 846.212 229.88C845.092 231.112 844.532 232.773 844.532 234.864V239.904C844.532 241.995 845.092 243.656 846.212 244.888C847.369 246.12 848.881 246.736 850.748 246.736ZM889.048 218.512C887.555 218.512 886.472 218.176 885.8 217.504C885.166 216.832 884.848 215.973 884.848 214.928V213.808C884.848 212.763 885.166 211.904 885.8 211.232C886.472 210.56 887.555 210.224 889.048 210.224C890.504 210.224 891.568 210.56 892.24 211.232C892.912 211.904 893.248 212.763 893.248 213.808V214.928C893.248 215.973 892.912 216.832 892.24 217.504C891.568 218.176 890.504 218.512 889.048 218.512ZM885.464 222.768H892.632V252H885.464V222.768ZM910.069 252C907.605 252 905.72 251.365 904.413 250.096C903.144 248.789 902.509 246.941 902.509 244.552V228.48H898.197V222.768H900.437C901.52 222.768 902.248 222.525 902.621 222.04C903.032 221.517 903.237 220.752 903.237 219.744V214.76H909.677V222.768H915.669V228.48H909.677V246.288H915.221V252H910.069ZM926.086 252.616C924.556 252.616 923.417 252.243 922.67 251.496C921.961 250.712 921.606 249.723 921.606 248.528V247.52C921.606 246.325 921.961 245.336 922.67 244.552C923.417 243.768 924.556 243.376 926.086 243.376C927.654 243.376 928.793 243.768 929.502 244.552C930.212 245.336 930.566 246.325 930.566 247.52V248.528C930.566 249.723 930.212 250.712 929.502 251.496C928.793 252.243 927.654 252.616 926.086 252.616Z" fill="white"/>
</g>
<g filter="url(#filter4_d_0_1)">
<path d="M433.427 138.331C431.985 138.843 430.811 138.884 429.905 138.453C429.022 137.974 428.399 137.224 428.037 136.204L427.681 135.201C427.344 134.251 427.147 133.251 427.091 132.202C427.023 131.117 427.055 130.036 427.188 128.958C427.355 127.869 427.63 126.801 428.011 125.754C428.392 124.708 428.857 123.73 429.406 122.822L433.945 121.211C433.206 122.701 432.637 124.112 432.238 125.442C431.839 126.772 431.677 128.157 431.752 129.596C432.847 129.445 433.742 129.622 434.437 130.128C435.119 130.599 435.61 131.257 435.91 132.101L436.322 133.262C436.684 134.283 436.656 135.263 436.238 136.204C435.842 137.097 434.905 137.806 433.427 138.331ZM445.301 134.115C443.859 134.627 442.684 134.668 441.779 134.237C440.896 133.758 440.273 133.008 439.911 131.988L439.555 130.985C439.217 130.036 439.021 129.036 438.965 127.986C438.897 126.901 438.929 125.82 439.061 124.743C439.229 123.653 439.504 122.585 439.885 121.539C440.266 120.492 440.731 119.515 441.28 118.607L445.819 116.995C445.08 118.486 444.511 119.896 444.112 121.226C443.713 122.556 443.551 123.941 443.626 125.38C444.721 125.229 445.616 125.407 446.311 125.913C446.993 126.384 447.484 127.041 447.784 127.885L448.196 129.046C448.558 130.067 448.53 131.047 448.111 131.988C447.715 132.882 446.779 133.591 445.301 134.115Z" fill="white" fill-opacity="0.5" shape-rendering="crispEdges"/>
</g>
<g filter="url(#filter5_d_0_1)">
<path d="M959.511 213.907C958.28 212.997 957.59 212.046 957.442 211.054C957.346 210.054 957.619 209.119 958.263 208.248L958.896 207.393C959.495 206.582 960.215 205.861 961.054 205.228C961.916 204.565 962.831 203.988 963.798 203.496C964.796 203.026 965.835 202.657 966.916 202.389C967.997 202.12 969.067 201.96 970.127 201.908L973.999 204.772C972.35 204.992 970.863 205.308 969.536 205.72C968.21 206.132 966.971 206.772 965.819 207.638C966.557 208.462 966.909 209.303 966.878 210.162C966.868 210.991 966.597 211.766 966.064 212.486L965.332 213.476C964.688 214.347 963.859 214.871 962.845 215.05C961.882 215.221 960.771 214.84 959.511 213.907ZM969.641 221.4C968.41 220.49 967.72 219.539 967.572 218.547C967.476 217.547 967.749 216.611 968.393 215.741L969.026 214.886C969.625 214.075 970.345 213.354 971.184 212.721C972.046 212.058 972.961 211.481 973.928 210.989C974.926 210.519 975.965 210.15 977.046 209.882C978.127 209.613 979.197 209.453 980.257 209.401L984.129 212.265C982.48 212.485 980.993 212.801 979.666 213.213C978.34 213.625 977.101 214.264 975.949 215.131C976.687 215.955 977.039 216.796 977.008 217.655C976.998 218.484 976.727 219.259 976.194 219.979L975.462 220.969C974.818 221.84 973.989 222.364 972.975 222.543C972.012 222.713 970.901 222.332 969.641 221.4Z" fill="white" fill-opacity="0.5" shape-rendering="crispEdges"/>
</g>
<defs>
<filter id="filter0_f_0_1" x="-178.75" y="-245.5" width="802" height="767.5" filterUnits="userSpaceOnUse" color-interpolation-filters="sRGB">
<feFlood flood-opacity="0" result="BackgroundImageFix"/>
<feBlend mode="normal" in="SourceGraphic" in2="BackgroundImageFix" result="shape"/>
<feGaussianBlur stdDeviation="125" result="effect1_foregroundBlur_0_1"/>
</filter>
<filter id="filter1_i_0_1" x="0" y="0" width="400" height="400" filterUnits="userSpaceOnUse" color-interpolation-filters="sRGB">
<feFlood flood-opacity="0" result="BackgroundImageFix"/>
<feBlend mode="normal" in="SourceGraphic" in2="BackgroundImageFix" result="shape"/>
<feColorMatrix in="SourceAlpha" type="matrix" values="0 0 0 0 0 0 0 0 0 0 0 0 0 0 0 0 0 0 127 0" result="hardAlpha"/>
<feMorphology radius="5" operator="erode" in="SourceAlpha" result="effect1_innerShadow_0_1"/>
<feOffset/>
<feGaussianBlur stdDeviation="4"/>
<feComposite in2="hardAlpha" operator="arithmetic" k2="-1" k3="1"/>
<feColorMatrix type="matrix" values="0 0 0 0 0.00784314 0 0 0 0 0.517647 0 0 0 0 0.780392 0 0 0 1 0"/>
<feBlend mode="normal" in2="shape" result="effect1_innerShadow_0_1"/>
</filter>
<filter id="filter2_d_0_1" x="52.6" y="173.2" width="286.484" height="65.76" filterUnits="userSpaceOnUse" color-interpolation-filters="sRGB">
<feFlood flood-opacity="0" result="BackgroundImageFix"/>
<feColorMatrix in="SourceAlpha" type="matrix" values="0 0 0 0 0 0 0 0 0 0 0 0 0 0 0 0 0 0 127 0" result="hardAlpha"/>
<feOffset dy="4"/>
<feGaussianBlur stdDeviation="2"/>
<feComposite in2="hardAlpha" operator="out"/>
<feColorMatrix type="matrix" values="0 0 0 0 0 0 0 0 0 0 0 0 0 0 0 0 0 0 0.25 0"/>
<feBlend mode="normal" in2="BackgroundImageFix" result="effect1_dropShadow_0_1"/>
<feBlend mode="normal" in="SourceGraphic" in2="effect1_dropShadow_0_1" result="shape"/>
</filter>
<filter id="filter3_d_0_1" x="450.144" y="137.224" width="545.135" height="123.448" filterUnits="userSpaceOnUse" color-interpolation-filters="sRGB">
<feFlood flood-opacity="0" result="BackgroundImageFix"/>
<feColorMatrix in="SourceAlpha" type="matrix" values="0 0 0 0 0 0 0 0 0 0 0 0 0 0 0 0 0 0 127 0" result="hardAlpha"/>
<feOffset dy="4"/>
<feGaussianBlur stdDeviation="2"/>
<feComposite in2="hardAlpha" operator="out"/>
<feColorMatrix type="matrix" values="0 0 0 0 0 0 0 0 0 0 0 0 0 0 0 0 0 0 0.25 0"/>
<feBlend mode="normal" in2="BackgroundImageFix" result="effect1_dropShadow_0_1"/>
<feBlend mode="normal" in="SourceGraphic" in2="effect1_dropShadow_0_1" result="shape"/>
</filter>
<filter id="filter4_d_0_1" x="419.971" y="116.995" width="35.1878" height="30.7972" filterUnits="userSpaceOnUse" color-interpolation-filters="sRGB">
<feFlood flood-opacity="0" result="BackgroundImageFix"/>
<feColorMatrix in="SourceAlpha" type="matrix" values="0 0 0 0 0 0 0 0 0 0 0 0 0 0 0 0 0 0 127 0" result="hardAlpha"/>
<feOffset dy="4"/>
<feGaussianBlur stdDeviation="2"/>
<feComposite in2="hardAlpha" operator="out"/>
<feColorMatrix type="matrix" values="0 0 0 0 0 0 0 0 0 0 0 0 0 0 0 0 0 0 0.25 0"/>
<feBlend mode="normal" in2="BackgroundImageFix" result="effect1_dropShadow_0_1"/>
<feBlend mode="normal" in="SourceGraphic" in2="effect1_dropShadow_0_1" result="shape"/>
</filter>
<filter id="filter5_d_0_1" x="951.999" y="198.478" width="36.1302" height="34.6182" filterUnits="userSpaceOnUse" color-interpolation-filters="sRGB">
<feFlood flood-opacity="0" result="BackgroundImageFix"/>
<feColorMatrix in="SourceAlpha" type="matrix" values="0 0 0 0 0 0 0 0 0 0 0 0 0 0 0 0 0 0 127 0" result="hardAlpha"/>
<feOffset dy="4"/>
<feGaussianBlur stdDeviation="2"/>
<feComposite in2="hardAlpha" operator="out"/>
<feColorMatrix type="matrix" values="0 0 0 0 0 0 0 0 0 0 0 0 0 0 0 0 0 0 0.25 0"/>
<feBlend mode="normal" in2="BackgroundImageFix" result="effect1_dropShadow_0_1"/>
<feBlend mode="normal" in="SourceGraphic" in2="effect1_dropShadow_0_1" result="shape"/>
</filter>
<clipPath id="clip0_0_1">
<rect width="400" height="400" rx="67" fill="white"/>
</clipPath>
</defs>
</svg>
